<svg xmlns="http://www.w3.org/2000/svg" xmlns:xlink="http://www.w3.org/1999/xlink" width="100%" height="100%" viewBox="0 0 800 800" preserveAspectRatio="xMidYMid meet" ><rect id="svgEditorBackground" x="0" y="0" width="800" height="800" style="fill:none; stroke: none;"/><g id="right_big_circle" transform="matrix(1 0 0 1 -2.99389 0)"><circle id="e2_circle" cx="575.3161010769774" cy="192.26580810848213" style="fill:#35495D; stroke-width: 1px;" r="60.1847191758"/><circle id="e4_circle" cx="571.3231201199461" cy="589.4564209014509" style="fill:#35495D; stroke-width: 1px;" r="60.1847191758"/></g><circle id="e1_circle" cx="413.76800537385236" cy="389.7880859405134" style="stroke: deeppink; stroke-width:30px;fill:none;" r="142.7192254005"/><circle id="e3_circle" cx="314.14447021644054" cy="125.19101715339406" style="fill: rgb(65, 184, 131); stroke-width: 1px;" r="26.1192001665" transform="matrix(1.3502 -0.239601 0.239601 1.3502 -205.421 101.246)"/><circle id="e5_circle" cx="159.16709900178205" cy="384.87310791316963" style="fill:#35495D; stroke-width: 1px;" r="60.1847191758"/><circle id="e6_circle" cx="590.1546630875343" cy="314.67382812751515" style="fill: rgb(65, 184, 131); stroke-width: 1px;" r="26.1192001665" transform="matrix(1.3502 -0.239601 0.239601 1.3502 -205.421 101.246)"/><circle id="e7_circle" cx="267.71359253089366" cy="406.84484863532765" style="fill: rgb(65, 184, 131); stroke-width: 1px;" r="26.1192001665" transform="matrix(1.3502 -0.239601 0.239601 1.3502 -205.421 101.246)"/><circle id="e8_circle" cx="381.3528747580049" cy="362.40939331289053" style="stroke:deeppink; stroke-width:0.5px;fill:none;" r="197.8108346635" transform="matrix(1.28576 0 0 1.28576 -76.1827 -76.6089)"/></svg>